<?xml version="1.0" encoding="UTF-8" standalone="no"?>
<svg
   xmlns:dc="http://purl.org/dc/elements/1.1/"
   xmlns:cc="http://creativecommons.org/ns#"
   xmlns:rdf="http://www.w3.org/1999/02/22-rdf-syntax-ns#"
   xmlns:svg="http://www.w3.org/2000/svg"
   xmlns="http://www.w3.org/2000/svg"
   xmlns:sodipodi="http://sodipodi.sourceforge.net/DTD/sodipodi-0.dtd"
   xmlns:inkscape="http://www.inkscape.org/namespaces/inkscape"
   xml:space="preserve"
   viewBox="120 500 750 10"
   height="1000"
   width="1000"
   y="0px"
   x="0px"
   id="Layer_1"
   version="1.1"
   sodipodi:docname="arrows_black.svg"
   inkscape:version="1.0.1 (3bc2e813f5, 2020-09-07)"><metadata
     id="metadata11"><rdf:RDF><cc:Work
         rdf:about=""><dc:format>image/svg+xml</dc:format><dc:type
           rdf:resource="http://purl.org/dc/dcmitype/StillImage" /><dc:title></dc:title></cc:Work></rdf:RDF></metadata><defs
     id="defs9" /><sodipodi:namedview
     pagecolor="#ffffff"
     bordercolor="#666666"
     borderopacity="1"
     objecttolerance="10"
     gridtolerance="10"
     guidetolerance="10"
     inkscape:pageopacity="0"
     inkscape:pageshadow="2"
     inkscape:window-width="1920"
     inkscape:window-height="1016"
     id="namedview7"
     showgrid="false"
     inkscape:zoom="0.862"
     inkscape:cx="500"
     inkscape:cy="500"
     inkscape:window-x="0"
     inkscape:window-y="27"
     inkscape:window-maximized="1"
     inkscape:current-layer="g4" /><g
     id="g4"><path
       d="M221.59,450.58c21.18-21.08,42.17-42.37,63.47-63.32c0.36,0.04,1.09,0.12,1.45,0.17   c42.04,41.97,84.03,84.01,126.05,126.01c7.35,7.61,15.24,14.71,22.22,22.65c-34.53,0.09-69.05-0.03-103.58,0.07   c0.22,4.02,0.13,8.07,0.57,12.09c0.98,5.23,0.11,10.62,1.22,15.84c3.96,38.26,13.16,76.56,31.44,110.66   c7.98,14.67,17.68,28.51,29.52,40.34c10.35,10.25,23.09,17.811,36.29,23.811c33.04,14.5,69.05,20.52,104.689,24.29   c7.051,0.369,14.01,1.649,21.11,1.449c8.93,1.25,17.97,1.091,26.979,1.17c12.99,1.08,26.04,0.71,39.061,0.601   c10.27-0.99,20.609-0.4,30.91-1c6.72-1.21,13.6-0.73,20.399-1.15c0.42-0.3,1.261-0.899,1.681-1.189   c-0.221,0.52-0.66,1.569-0.881,2.09c-43.979,23.25-92.619,37.87-142.17,42.22c-2.47,0.07-4.92,0.101-7.38,0.24   c-1.47,0.479-3,0.86-4.55,0.83c-8.72,0.04-17.439,0.069-26.15-0.01c-1.26-0.07-2.47-0.33-3.63-0.79   c-32.95-1.521-65.63-9.471-95.74-22.971c-29.71-13.47-57.05-32.109-80.53-54.72c-19.49-19.11-36.02-41.26-48.52-65.54   c-20.43-39.57-30.45-84.35-29.88-128.77c-32.98-0.02-65.96,0.1-98.94-0.06C164.87,507.13,193.31,478.94,221.59,450.58    M473.79,206.45c15.18-0.46,30.38-0.38,45.56,0.19l-0.1,0.99c32.48,2.4,64.45,11.31,93.79,25.45   c34.54,16.94,66.01,40.54,90.85,69.99c36,42.31,56.771,96.69,60.57,151.92c0.01,8.11,0.83,16.17,1.06,24.27   c27.5-0.07,55.011-0.01,82.511-0.03c5.39,0.09,10.79-0.25,16.17,0.27c-9.761,8.76-18.65,18.45-28.05,27.59   c-22.021,22.01-44.03,44.03-66.051,66.04c-18.41,18.23-36.47,36.85-55.109,54.83c-47.44-47.56-95-95-142.48-142.54   c-1.939-1.97-4.09-3.77-5.71-6.03c3.7-0.23,7.4-0.82,11.101-0.23c6.039,0.17,12.119,0,18.119-0.25c4.98,0.69,10,0.27,14.99-0.12   c5.62,0.62,11.3,0.61,16.94,0.16c9.67,0.55,19.38,0.17,29.069,0.28c4.23-0.14,8.551,0.47,12.721-0.61   c-0.931-29.21-4.851-58.39-12.641-86.62c-9.649-34.53-25.66-68.22-51.34-93.73c-15.72-14.59-35.57-23.67-55.67-30.51   c-0.54-0.14-1.62-0.41-2.16-0.54c-28.449-9.23-58.229-13.52-87.89-16.34c-3.09-0.39-6.21-0.22-9.29-0.58   c-6.23-1.28-12.63-0.55-18.92-1.08c-2.26-0.43-4.54-0.69-6.83-0.62c-20.01-0.49-40.03-0.53-60.05-0.06   c-5.38,0.22-10.77,0.1-16.15-0.13c5.77,0.47,11.55,0.89,17.35,1.15c-9.1-0.26-18.21-0.32-27.31,0.13   c-4.52,0.84-9.15,1.11-13.73,0.77c43.17-23.34,91.07-38.01,139.9-42.79C467.98,207.6,470.95,207.42,473.79,206.45 M112.94,70.16   c-12.96,2.11-24.79,9.67-32.57,20.2c-7.65,10.12-11.62,22.97-11.11,35.64c0.01,253.67,0.01,507.33,0,761   c-0.66,15.72,5.76,31.65,17.25,42.43c9.63,9.311,23.11,14.521,36.51,13.96c251.32-0.02,502.65-0.01,753.97,0   c11.77,0.561,23.72-3.06,33.02-10.35c14.18-10.57,22.03-28.49,21.63-46.01V125.95c0.41-14.99-5.35-30.04-15.66-40.94   c-9-8.97-21.189-15.05-33.989-15.5H118.98C116.95,69.49,114.92,69.66,112.94,70.16 M115.07,0h770.38   c16.96,1.45,33.87,5.61,49.01,13.57c25.4,12.979,45.61,35.39,56.57,61.67c5.18,12.49,8.72,25.84,8.97,39.42V898.27   c-0.42,17.94-6.2,35.45-14.65,51.171c-10.39,19-25.819,35.27-44.47,46.319c-15.97,9.681-34.32,15.28-52.92,16.63   c-9.66,0.24-19.33,0.051-28.99,0.11c-245.66,0.01-491.33-0.01-736.99,0.01c-32.67,0.771-65.09-13.39-87.52-37.01   c-13.71-14.36-23.93-32.03-29.44-51.11c-2.61-8.43-3.81-17.17-5.02-25.87V118.17c0.68-13.34,3.41-26.6,8.19-39.08   c9.93-26.37,29.16-49.229,53.72-63.13C78.05,6.5,96.54,1.64,115.07,0"
       fill="#ffffff"
       id="path2"
       style="fill:#000000" /></g></svg>
